<?xml version="1.0" encoding="UTF-8"?>
<svg xmlns="http://www.w3.org/2000/svg" version="1.1" width="2048" height="1323" viewBox="0 0 2048 1323"><defs><linearGradient id="g" x1="0%" y1="20%" x2="100%" y2="80%"><stop offset="0%" stop-color="#FF1E1E"/><stop offset="17%" stop-color="#FF8A00"/><stop offset="33%" stop-color="#FFE000"/><stop offset="50%" stop-color="#27C93F"/><stop offset="67%" stop-color="#1E8FFF"/><stop offset="83%" stop-color="#7A3CFF"/><stop offset="100%" stop-color="#C71EFF"/></linearGradient></defs><path d="M0 0 C3.3 0.223 6.602 0.416 9.904 0.606 C12.029 0.74 14.154 0.876 16.279 1.014 C17.253 1.071 18.227 1.127 19.231 1.185 C25.103 1.607 29.723 2.745 35.146 5.034 C37.281 5.578 39.428 6.082 41.584 6.534 C49.43 8.279 56.753 10.778 64.182 13.823 C66.412 14.734 68.647 15.621 70.893 16.495 C89.626 23.877 106.739 32.831 121.549 46.62 C123.772 48.686 126.03 50.684 128.334 52.659 C131.778 55.647 134.968 58.837 138.166 62.085 C139.997 63.886 141.877 65.56 143.834 67.221 C152.37 74.596 160.319 82.62 167.186 91.573 C169.403 94.356 171.782 96.932 174.209 99.534 C179.481 105.259 183.781 111.386 188.006 117.901 C190.364 121.352 192.907 124.589 195.521 127.846 C207.724 143.269 216.857 160.402 224.893 178.311 C226.104 180.942 227.39 183.519 228.709 186.096 C230.343 189.319 231.783 192.539 233.084 195.909 C234.953 200.729 237.214 205.29 239.584 209.882 C243.553 217.889 246.926 226.178 250.396 234.409 C250.638 234.981 250.638 234.981 251.858 237.873 C252.832 240.181 253.805 242.489 254.779 244.798 C255.991 247.665 257.209 250.53 258.432 253.393 C262.329 262.541 265.994 271.731 269.398 281.074 C269.926 282.456 270.485 283.825 271.066 285.185 C274.244 292.673 276.198 300.41 278.146 308.284 C278.81 310.936 279.477 313.587 280.146 316.237 C280.312 316.892 280.477 317.547 280.647 318.222 C283.281 328.583 286.373 338.815 289.394 349.068 C292.878 360.921 296.192 372.782 299.112 384.789 C300.726 391.419 302.468 397.997 304.411 404.539 C305.882 409.627 306.918 414.769 307.932 419.965 C309.427 427.572 311.182 435.114 312.959 442.659 C313.132 443.401 313.305 444.142 313.484 444.906 C315.553 453.748 317.785 462.477 320.459 471.159 C322.73 478.647 324.092 486.086 325.084 493.846 C325.213 494.844 325.341 495.841 325.474 496.868 C326.43 505.318 326.455 512.188 321.525 519.421 C319.633 521.634 317.918 522.196 315.146 523.034 C313.984 523.737 312.841 524.47 311.709 525.221 C300.01 532.631 287.365 537.363 274.449 542.169 C267.794 544.67 261.297 547.483 254.873 550.526 C232.049 561.164 232.049 561.164 221.146 559.034 C212.152 552.496 210.144 541.012 208.459 530.721 C208.26 529.588 208.061 528.454 207.855 527.286 C206.682 520.534 205.646 513.769 204.698 506.982 C204.116 503.87 203.181 501.023 202.146 498.034 C201.673 495.666 201.239 493.29 200.834 490.909 C199.387 482.745 197.397 474.752 195.33 466.725 C193.65 460.139 192.14 453.683 191.459 446.909 C190.433 439.388 188.251 432.377 185.965 425.152 C183.421 417.083 181.229 408.958 179.188 400.747 C178.002 396.039 176.643 391.556 174.87 387.038 C173.237 382.513 172.243 377.774 171.129 373.1 C169.944 368.37 168.39 364.361 166.108 360.061 C164.402 356.463 163.538 352.637 162.584 348.784 C161.351 343.805 160.362 340.101 157.146 336.034 C156.268 333.159 156.268 333.159 155.584 330.034 C154.341 324.418 154.341 324.418 153.139 322.05 C151.814 319.359 151.392 316.728 150.834 313.784 C148.605 302.976 145.329 292.523 141.049 282.346 C139.764 279.053 138.851 275.678 137.955 272.26 C137.052 269.773 135.761 268.114 134.146 266.034 C133.455 264.042 132.787 262.042 132.146 260.034 C131.486 259.044 130.826 258.054 130.146 257.034 C129.837 255.9 129.528 254.765 129.209 253.596 C128.202 250.221 127.297 248.701 125.146 246.034 C123.806 243.469 122.542 240.878 121.314 238.257 C117.824 230.992 113.696 223.822 108.396 217.721 C106.051 214.92 104.727 212.321 103.146 209.034 C99.577 202.442 95.399 196.759 90.58 191.03 C87.896 187.726 85.414 184.322 82.959 180.846 C82.745 180.545 82.745 180.545 81.665 179.02 C79.962 176.612 78.264 174.201 76.568 171.788 C71.959 165.417 66.535 159.744 61.146 154.034 C60.672 153.523 60.198 153.013 59.709 152.487 C57.227 150.178 54.525 148.152 51.834 146.096 C51.278 145.667 50.722 145.237 50.148 144.794 C44.74 140.644 39.304 137.003 33.146 134.034 C32.692 133.792 32.692 133.792 30.393 132.569 C29.466 132.083 28.539 131.597 27.584 131.096 C27.13 130.855 27.13 130.855 24.83 129.632 C14.843 125.021 5.214 123.333 -5.729 123.471 C-6.955 123.482 -8.182 123.492 -9.445 123.502 C-22.917 123.818 -32.709 127.361 -44.162 134.483 C-46.578 135.875 -48.627 136.722 -51.291 137.471 C-62.319 140.75 -72.562 149.437 -81.854 156.034 C-82.883 156.762 -83.913 157.491 -84.975 158.241 C-92.352 163.522 -92.352 163.522 -95.037 166.264 C-96.854 168.034 -96.854 168.034 -98.854 168.034 C-99.514 169.354 -100.174 170.674 -100.854 172.034 C-101.514 172.034 -102.174 172.034 -102.854 172.034 C-103.116 172.606 -103.379 173.179 -103.65 173.768 C-104.93 176.178 -106.402 178.153 -108.104 180.284 C-111.423 184.486 -114.665 188.732 -117.854 193.034 C-118.471 193.855 -119.088 194.676 -119.725 195.522 C-128.38 207.181 -136.276 219.597 -141.854 233.034 C-142.844 235.038 -143.846 237.038 -144.854 239.034 C-145.409 240.157 -145.965 241.279 -146.537 242.436 C-151.844 253.133 -151.844 253.133 -154.104 256.971 C-155.854 260.034 -155.854 260.034 -157.229 263.409 C-158.525 266.301 -159.772 268.517 -161.541 271.096 C-167.563 279.882 -172.786 289.188 -176.854 299.034 C-180.449 307.396 -180.449 307.396 -182.479 310.596 C-184.063 313.405 -184.62 316.002 -185.326 319.124 C-186.049 321.741 -187.394 323.757 -188.854 326.034 C-190.876 330.456 -192.413 334.681 -193.604 339.409 C-193.942 340.717 -194.282 342.024 -194.623 343.331 C-194.718 343.697 -194.718 343.697 -195.2 345.548 C-204.303 380.167 -204.303 380.167 -209.428 388.635 C-211.212 391.636 -211.922 394.682 -212.854 398.034 C-213.514 399.024 -214.174 400.014 -214.854 401.034 C-215.359 402.498 -215.812 403.98 -216.229 405.471 C-217.394 409.494 -218.616 413.49 -219.916 417.471 C-220.237 418.46 -220.558 419.449 -220.889 420.468 C-221.854 423.034 -221.854 423.034 -223.854 426.034 C-224.526 427.997 -225.144 429.98 -225.729 431.971 C-227.355 437.412 -229.095 442.797 -230.916 448.175 C-232.066 451.681 -233.075 455.22 -234.045 458.78 C-234.854 461.034 -234.854 461.034 -236.314 463.336 C-237.89 466.097 -238.599 468.365 -239.291 471.456 C-240.938 478.461 -242.875 485.366 -244.854 492.284 C-245.196 493.498 -245.539 494.713 -245.893 495.964 C-247.645 502.104 -249.521 508.09 -251.854 514.034 C-252.344 515.489 -252.826 516.946 -253.291 518.409 C-254.64 522.504 -256.188 526.491 -257.814 530.483 C-258.87 533.075 -259.893 535.679 -260.916 538.284 C-262.387 541.973 -264.077 545.481 -265.854 549.034 C-267.386 552.751 -268.696 556.477 -269.791 560.346 C-270.69 563.466 -271.72 566.434 -272.854 569.471 C-274.092 572.805 -275.175 576.07 -275.979 579.534 C-276.854 583.034 -276.854 583.034 -278.854 586.034 C-279.248 587.855 -279.576 589.691 -279.854 591.534 C-280.404 595.19 -280.763 596.898 -282.854 600.034 C-283.084 602.698 -283.084 602.698 -283.041 605.659 C-283.035 606.641 -283.028 607.623 -283.021 608.635 C-282.854 611.034 -282.854 611.034 -281.854 612.034 C-272.77 612.778 -264.098 610.708 -256.854 605.034 C-254.867 604.328 -252.865 603.665 -250.854 603.034 C-248.511 602.055 -246.178 601.054 -243.854 600.034 C-242.74 599.56 -241.626 599.085 -240.479 598.596 C-237.735 597.414 -235.012 596.202 -232.291 594.971 C-228.863 593.44 -225.425 592.199 -221.854 591.034 C-217.381 589.245 -213.141 587.169 -208.854 584.971 C-205.575 583.31 -202.479 581.766 -198.916 580.846 C-195.698 579.993 -193.645 578.828 -190.854 577.034 C-188.662 575.792 -186.456 574.578 -184.248 573.366 C-182.671 572.489 -181.105 571.591 -179.553 570.671 C-175.41 568.245 -171.704 566.493 -166.995 565.528 C-164.811 565.024 -162.74 564.376 -160.619 563.655 C-159.83 563.388 -159.04 563.121 -158.227 562.845 C-157.443 562.578 -156.66 562.31 -155.854 562.034 C-146.222 558.741 -136.578 555.588 -126.791 552.784 C-125.935 552.538 -125.08 552.292 -124.198 552.039 C-120.166 550.899 -116.144 549.858 -112.045 548.987 C-108.805 548.296 -105.925 547.282 -102.854 546.034 C-100.945 545.674 -99.027 545.364 -97.104 545.096 C-91.753 544.258 -86.922 542.9 -81.854 541.034 C-76.856 539.267 -71.887 537.767 -66.729 536.534 C-63.397 535.728 -60.516 534.889 -57.354 533.534 C-51.061 530.837 -43.772 528.453 -36.854 529.034 C-30.417 532.843 -28.717 538.001 -26.854 545.034 C-25.853 549.646 -25.007 554.271 -24.217 558.923 C-23.611 562.446 -22.95 565.958 -22.291 569.471 C-22.063 570.708 -21.835 571.944 -21.6 573.218 C-20.144 580.661 -18.396 587.98 -16.354 595.284 C-16.247 595.672 -16.247 595.672 -15.709 597.635 C-14.855 600.707 -13.996 603.682 -12.799 606.639 C-9.396 615.26 -7.209 626.869 -8.854 636.034 C-11.899 642.518 -18.421 645.643 -24.854 648.034 C-33.398 650.592 -42.083 652.313 -50.852 653.894 C-61.281 655.802 -71.479 658.528 -81.604 661.659 C-82.271 661.865 -82.939 662.071 -83.627 662.283 C-86.182 663.094 -88.632 663.923 -91.033 665.124 C-93.723 666.469 -96.499 666.839 -99.439 667.374 C-102.474 668.204 -105.046 669.62 -107.854 671.034 C-113.761 673.141 -119.731 674.912 -125.916 675.971 C-136.208 677.883 -145.627 683.296 -154.854 688.034 C-157.51 689.388 -160.174 690.725 -162.854 692.034 C-163.466 692.338 -164.078 692.642 -164.709 692.956 C-169.95 695.429 -175.369 697.31 -180.854 699.159 C-181.601 699.413 -182.349 699.667 -183.119 699.928 C-186.85 701.161 -190.513 702.201 -194.369 702.964 C-199.143 703.975 -203.254 705.863 -207.604 708.034 C-209.056 708.743 -210.509 709.452 -211.963 710.159 C-212.635 710.489 -213.307 710.819 -214 711.159 C-215.552 711.892 -217.145 712.537 -218.744 713.159 C-220.854 714.034 -220.854 714.034 -222.854 716.034 C-226.37 717.353 -229.905 718.553 -233.469 719.735 C-237.598 721.138 -241.169 722.649 -244.854 725.034 C-247.87 726.368 -250.904 727.641 -253.951 728.901 C-259.1 731.099 -263.804 733.722 -268.572 736.651 C-271.833 738.628 -275.159 740.357 -278.701 741.772 C-282.227 743.184 -283.686 743.782 -285.854 747.034 C-288.184 747.712 -290.517 748.378 -292.854 749.034 C-294.479 750.534 -294.479 750.534 -295.854 752.034 C-296.615 752.336 -297.377 752.637 -298.162 752.948 C-300.827 754.023 -302.929 755.284 -305.291 756.909 C-306.075 757.444 -306.859 757.979 -307.666 758.53 C-308.388 759.026 -309.11 759.523 -309.854 760.034 C-310.823 760.673 -311.792 761.313 -312.791 761.971 C-318.006 765.484 -323.152 769.099 -328.264 772.76 C-332.862 776.035 -337.53 779.099 -342.354 782.034 C-351.609 787.675 -360.669 793.569 -368.166 801.471 C-372.048 805.173 -376.422 808.028 -380.854 811.034 C-400.394 824.393 -400.394 824.393 -407.854 832.034 C-409.55 833.629 -411.26 835.212 -412.979 836.784 C-413.827 837.563 -414.675 838.341 -415.549 839.143 C-417.854 841.034 -417.854 841.034 -420.854 842.034 C-421.543 843.356 -422.208 844.69 -422.854 846.034 C-424.404 847.561 -424.404 847.561 -426.166 848.971 C-430.956 852.927 -435.002 857.163 -438.854 862.034 C-442.743 866.716 -446.861 871.045 -451.229 875.284 C-459.171 883.081 -465.3 892.008 -471.166 901.432 C-473.808 905.506 -476.796 909.267 -479.854 913.034 C-480.069 913.311 -480.069 913.311 -481.158 914.714 C-483.322 917.443 -485.569 919.646 -488.291 921.784 C-492.029 924.865 -494.089 928.466 -496.459 932.643 C-499.801 938.372 -504.445 943.192 -509.854 947.034 C-510.514 947.034 -511.174 947.034 -511.854 947.034 C-511.75 947.9 -511.647 948.766 -511.541 949.659 C-511.968 954.272 -513.704 955.727 -516.854 959.034 C-518.504 958.704 -520.154 958.374 -521.854 958.034 C-521.767 956.075 -521.658 954.117 -521.541 952.159 C-521.512 951.614 -521.512 951.614 -521.365 948.854 C-521.196 947.924 -521.028 946.993 -520.854 946.034 C-519.864 945.374 -518.874 944.714 -517.854 944.034 C-517.641 941.777 -517.857 939.678 -518.041 937.421 C-517.798 934.33 -516.472 932.657 -514.854 930.034 C-514.263 928.011 -513.742 925.967 -513.291 923.909 C-512.49 920.281 -511.936 918.158 -509.854 915.034 C-509.337 913.321 -508.887 911.588 -508.479 909.846 C-508.351 909.315 -508.351 909.315 -507.705 906.624 C-507.424 905.439 -507.143 904.254 -506.854 903.034 C-504.731 894.303 -502.589 885.596 -499.854 877.034 C-499.484 875.826 -499.114 874.618 -498.732 873.374 C-496.54 866.364 -494.203 860.03 -489.854 854.034 C-487.324 850.24 -485.928 846.548 -484.6 842.218 C-483.854 840.034 -483.854 840.034 -482.826 838.014 C-481.526 835.368 -481.023 832.709 -480.416 829.839 C-479.854 828.034 -479.854 828.034 -477.854 826.034 C-477.58 824.116 -477.58 824.116 -477.479 821.846 C-477.127 817.831 -476.057 815.352 -473.834 811.932 C-472.241 808.848 -471.857 805.577 -471.346 802.171 C-470.854 800.034 -470.854 800.034 -468.854 798.034 C-468.266 796.031 -467.754 794.006 -467.291 791.971 C-465.951 786.131 -465.951 786.131 -464.854 785.034 C-464.356 782.296 -463.953 779.549 -463.549 776.796 C-462.803 773.832 -461.694 772.419 -459.854 770.034 C-459.229 767.807 -459.229 767.807 -458.854 765.409 C-457.571 758.226 -455.418 751.481 -452.854 744.659 C-451.084 739.886 -449.818 735.102 -448.635 730.155 C-446.652 722.235 -444.287 714.451 -440.854 707.034 C-436.78 698.185 -433 689.277 -429.631 680.135 C-429.072 678.626 -428.501 677.121 -427.92 675.62 C-425.378 668.914 -423.507 662.173 -421.783 655.221 C-420.854 652.034 -420.854 652.034 -418.854 649.034 C-418.326 646.87 -418.326 646.87 -417.916 644.409 C-417.149 640.256 -416.077 636.398 -414.635 632.432 C-413.745 629.701 -413.08 626.932 -412.398 624.144 C-411.539 620.814 -410.475 617.555 -409.416 614.284 C-407.543 608.434 -405.935 602.592 -404.627 596.585 C-403.761 593.728 -402.406 591.574 -400.854 589.034 C-399.975 586.604 -399.975 586.604 -399.291 584.159 C-399.044 583.29 -398.796 582.421 -398.541 581.526 C-398.314 580.704 -398.087 579.881 -397.854 579.034 C-394.295 566.476 -394.295 566.476 -391.854 564.034 C-391.306 562.719 -390.81 561.383 -390.354 560.034 C-389.426 557.292 -388.947 556.128 -386.854 554.034 C-386.291 552.229 -386.291 552.229 -385.854 550.159 C-385.377 547.921 -384.887 546.101 -383.85 544.053 C-382.778 541.88 -382.349 539.974 -381.916 537.596 C-381.139 533.839 -379.869 531.31 -377.854 528.034 C-377.462 526.669 -377.11 525.293 -376.791 523.909 C-375.854 520.034 -375.854 520.034 -373.854 517.034 C-373.481 515.254 -373.175 513.459 -372.916 511.659 C-372.205 507.374 -371.128 504.73 -368.854 501.034 C-368.253 498.479 -367.794 495.93 -367.381 493.339 C-366.854 491.034 -366.854 491.034 -364.854 488.034 C-364.326 486.018 -364.326 486.018 -363.916 483.784 C-363.054 479.583 -361.571 475.97 -359.854 472.034 C-359.358 470.094 -358.864 468.154 -358.394 466.208 C-357.523 462.704 -356.503 459.246 -355.479 455.784 C-355.262 455.05 -355.045 454.315 -354.821 453.559 C-349.928 437.123 -349.928 437.123 -347.799 432.983 C-346.771 430.863 -346.342 428.972 -345.916 426.659 C-345.1 422.716 -343.657 419.641 -341.854 416.034 C-341.282 413.829 -340.832 411.614 -340.377 409.382 C-338.918 402.836 -336.333 396.551 -334.025 390.268 C-333.125 387.783 -332.241 385.295 -331.369 382.8 C-331.109 382.054 -330.848 381.309 -330.579 380.542 C-330.067 379.074 -329.556 377.605 -329.048 376.135 C-327.879 372.793 -326.656 369.512 -325.232 366.268 C-324.175 363.787 -323.394 361.648 -322.854 359.034 C-322.19 355.827 -320.989 353.008 -319.674 350.014 C-318.188 346.428 -317.043 342.727 -315.854 339.034 C-313.64 332.162 -311.261 325.548 -307.854 319.159 C-306.062 315.636 -304.826 312.088 -303.635 308.327 C-302.312 304.444 -300.559 300.761 -298.854 297.034 C-298.359 295.879 -297.864 294.724 -297.354 293.534 C-296.195 290.831 -295.003 288.151 -293.791 285.471 C-292.614 282.848 -291.626 280.339 -290.729 277.596 C-289.854 275.034 -289.854 275.034 -287.854 273.034 C-287.143 271.038 -287.143 271.038 -286.479 268.596 C-283.95 259.778 -280.68 251.363 -276.854 243.034 C-274.136 237.017 -271.57 230.954 -269.1 224.831 C-267.873 222.077 -266.427 219.601 -264.854 217.034 C-264.524 216.188 -264.194 215.343 -263.854 214.471 C-262.854 212.034 -262.854 212.034 -261.416 210.159 C-259.753 207.897 -258.772 205.588 -257.69 203.01 C-253.692 193.569 -249.177 184.351 -244.166 175.409 C-243.81 174.771 -243.454 174.133 -243.087 173.476 C-240.602 169.117 -237.929 165.002 -234.854 161.034 C-234.194 161.034 -233.534 161.034 -232.854 161.034 C-232.647 160.209 -232.441 159.384 -232.229 158.534 C-230.791 154.875 -229.055 152.515 -226.643 149.468 C-223.638 145.381 -221.151 140.968 -218.588 136.596 C-218.016 135.751 -217.443 134.905 -216.854 134.034 C-216.194 134.034 -215.534 134.034 -214.854 134.034 C-214.647 133.209 -214.441 132.384 -214.229 131.534 C-212.804 127.908 -211.139 125.532 -208.756 122.503 C-206.834 120.009 -205.022 117.46 -203.215 114.884 C-199.618 109.762 -195.985 104.852 -191.764 100.221 C-189.171 97.253 -186.772 94.145 -184.354 91.034 C-180.338 85.888 -176.296 80.823 -171.854 76.034 C-171.25 75.366 -170.647 74.698 -170.025 74.01 C-160.732 64.185 -149.317 56.27 -138.189 48.655 C-134.559 46.136 -131.031 43.478 -127.494 40.831 C-124.717 38.941 -121.857 37.53 -118.854 36.034 C-117.513 35.072 -116.197 34.074 -114.916 33.034 C-111.412 30.328 -107.961 28.721 -103.854 27.034 C-102.548 26.244 -101.257 25.43 -99.979 24.596 C-96.581 22.412 -93.164 20.767 -89.451 19.194 C-86.289 17.782 -83.241 16.187 -80.166 14.596 C-70.376 9.638 -60.159 6.277 -49.604 3.346 C-48.903 3.144 -48.202 2.941 -47.48 2.733 C-31.731 -1.45 -16.113 -1.102 0 0 Z " fill="url(#g)" transform="translate(688.853515625,59.966064453125)"/><path d="M0 0 C0.799 0.027 1.597 0.054 2.42 0.082 C7.247 0.326 11.11 1.196 15.569 3.042 C18.364 4.101 21.168 4.445 24.125 4.812 C29.914 5.54 29.914 5.54 32.77 6.684 C35.115 7.621 37.093 8.103 39.555 8.57 C45.256 9.781 50.307 12.159 55.562 14.625 C56.038 14.842 56.038 14.842 58.441 15.941 C72.144 22.27 72.144 22.27 76.438 26.75 C77.332 27.33 78.227 27.91 79.148 28.508 C82.524 30.809 85.516 33.352 88.5 36.125 C89.003 36.581 89.507 37.038 90.025 37.508 C93.483 40.693 96.443 44.118 99.438 47.75 C101.091 49.43 102.758 51.096 104.438 52.75 C106.731 55.125 108.992 57.529 111.25 59.938 C111.847 60.566 112.445 61.194 113.061 61.842 C113.625 62.444 114.188 63.047 114.77 63.668 C115.282 64.212 115.795 64.756 116.323 65.317 C117.438 66.75 117.438 66.75 117.438 68.75 C118.015 68.936 118.592 69.121 119.188 69.312 C121.913 71.054 122.895 73.096 124.387 75.906 C125.661 78.143 127.266 80.014 128.949 81.953 C133.104 86.97 136.877 92.361 140.438 97.812 C142.294 100.54 144.279 103.018 146.375 105.562 C151.496 111.909 155.009 118.576 158.203 126.039 C159.522 128.935 160.961 131.75 162.417 134.578 C165.377 140.344 168.021 145.821 169.664 152.117 C171.79 159.355 174.965 166.38 177.98 173.281 C179.406 176.674 180.608 180.065 181.75 183.562 C182.182 184.883 182.614 186.203 183.047 187.523 C183.272 188.211 183.497 188.9 183.729 189.608 C184.454 191.799 185.201 193.982 185.953 196.164 C190.633 209.793 194.42 223.175 195.945 237.543 C196.415 240.601 197.29 242.9 198.438 245.75 C198.804 247.971 199.112 250.202 199.375 252.438 C200.064 257.637 201.084 262.397 202.715 267.371 C203.719 270.677 204.32 274.025 204.91 277.426 C205.496 280.008 206.45 282.295 207.438 284.75 C207.925 286.597 208.382 288.452 208.812 290.312 C210.49 297.202 212.574 303.947 215.14 310.561 C221.027 325.751 228.285 349.143 223.695 365.375 C218.562 376.138 208.58 380.405 198.438 385.75 C196.81 386.641 195.185 387.536 193.562 388.438 C193.223 388.625 193.223 388.625 191.508 389.574 C189.126 390.927 186.782 392.334 184.438 393.75 C174.437 399.75 174.437 399.75 171.863 401.273 C169.725 402.575 167.679 403.945 165.625 405.375 C161.316 408.26 156.88 410.875 152.375 413.438 C151.715 413.818 151.054 414.198 150.374 414.59 C143.431 418.495 136.603 420.935 128.762 422.328 C126.865 422.672 124.989 423.133 123.125 423.625 C120.438 423.75 120.438 423.75 117.957 422.16 C104.843 409.616 104.378 379.717 103.672 362.742 C103.366 358.841 102.395 355.341 101.258 351.609 C100.298 348.265 99.61 344.913 98.938 341.5 C98.684 340.22 98.43 338.94 98.168 337.621 C97.7 335.14 97.262 332.653 96.863 330.16 C95.394 321.54 92.716 314.121 89.345 306.083 C86.935 300.25 85.339 294.654 84.211 288.43 C83.24 283.81 81.848 279.376 80.438 274.875 C77.753 266.216 75.962 257.681 74.438 248.75 C72.344 237.55 69.479 226.71 64.906 216.246 C63.438 212.75 63.438 212.75 62.445 209.246 C61.38 205.55 59.963 202.285 58.312 198.812 C58.01 198.175 57.708 197.537 57.397 196.881 C54.161 190.09 50.792 183.364 47.395 176.652 C46.724 175.319 46.06 173.983 45.4 172.645 C43.699 169.196 41.987 165.846 39.875 162.625 C38.413 160.347 37.175 158.202 36 155.75 C34.259 152.408 32.154 149.614 29.855 146.641 C28.205 144.441 26.851 142.106 25.438 139.75 C24.881 139.193 24.324 138.636 23.75 138.062 C23.317 137.629 22.884 137.196 22.438 136.75 C22.438 136.09 22.438 135.43 22.438 134.75 C22.138 134.616 22.138 134.616 20.625 133.938 C18.438 132.75 18.438 132.75 17.145 131.438 C2.714 117.172 -15.764 111.631 -35.551 111.637 C-37.555 111.668 -39.559 111.706 -41.562 111.75 C-42.455 111.762 -43.348 111.775 -44.267 111.788 C-57.808 112.026 -57.808 112.026 -62.562 115.75 C-65.359 116.262 -65.359 116.262 -68.312 116.438 C-69.297 116.503 -70.282 116.569 -71.297 116.637 C-71.671 116.655 -71.671 116.655 -73.562 116.75 C-74.148 114.332 -74.148 114.332 -74.562 111.75 C-74.109 111.317 -73.655 110.884 -73.188 110.438 C-71.214 108.388 -71.265 107.463 -71 104.688 C-70.562 100.75 -70.562 100.75 -68.562 98.75 C-67.995 96.621 -67.505 94.471 -67.062 92.312 C-66.269 88.451 -65.763 86.05 -63.562 82.75 C-63.071 80.782 -62.581 78.814 -62.117 76.84 C-61.467 74.39 -60.509 72.132 -59.461 69.828 C-58.322 67.194 -57.364 64.506 -56.375 61.812 C-51.992 50.347 -46.094 39.535 -40.211 28.781 C-39.13 26.794 -38.072 24.794 -37.039 22.781 C-33.869 16.675 -30.415 11.634 -25.562 6.75 C-25.007 6.16 -24.451 5.569 -23.879 4.961 C-17.243 -1.506 -8.735 -0.468 0 0 Z " fill="url(#g)" transform="translate(609.5625,297.25)"/><path d="M0 0 C8 1.587 14.596 4.588 21.562 8.75 C22.481 9.287 23.4 9.824 24.347 10.378 C29.665 13.516 34.846 16.769 39.824 20.43 C42.297 22.215 44.85 23.823 47.438 25.438 C52.214 28.445 56.771 31.679 61.312 35.027 C64.688 37.505 68.114 39.903 71.551 42.293 C73.158 43.413 74.759 44.54 76.355 45.676 C81.197 49.111 86.117 52.379 91.125 55.562 C95.607 58.412 99.977 61.331 104.156 64.613 C105.683 65.762 107.264 66.838 108.855 67.895 C111.932 69.954 114.87 72.129 117.812 74.375 C125.748 80.329 132.856 85.24 142.203 88.727 C145.246 90.112 147.46 91.843 150 94 C151.658 95.014 153.327 96.011 155 97 C161.164 100.915 166.985 105.219 172.805 109.625 C180.896 115.639 189.251 121.339 197.754 126.754 C204.035 130.798 209.649 135.154 215.266 140.057 C219.243 143.481 223.358 146.234 227.941 148.809 C230 150 230 150 232.438 152 C234.945 153.957 237.381 155.327 240.188 156.812 C245.791 159.806 250.877 163.256 256 167 C256.46 167.332 256.46 167.332 258.789 169.012 C260.663 170.367 262.532 171.73 264.395 173.102 C265.997 174.269 267.617 175.415 269.262 176.523 C274.449 180.1 278.585 184.073 281 190 C281.703 194.932 281.226 199.037 278.562 203.301 C276.82 205.367 275.004 207.188 273 209 C272.546 209.423 272.546 209.423 270.25 211.562 C266.708 214.373 262.844 216.706 259.016 219.102 C255.857 221.09 252.736 223.126 249.625 225.188 C248.669 225.82 247.712 226.453 246.727 227.105 C244.051 228.965 241.541 230.962 239 233 C237.622 233.943 236.228 234.863 234.812 235.75 C234.138 236.178 233.464 236.606 232.77 237.047 C231 238 231 238 229 238 C229 238.66 229 239.32 229 240 C227.348 241.227 227.348 241.227 225.062 242.625 C220.72 245.411 216.997 248.545 213.238 252.07 C210.63 254.319 207.895 256.132 205 258 C203.705 258.85 202.411 259.7 201.117 260.551 C199.704 261.472 198.29 262.393 196.875 263.312 C196.125 263.8 195.375 264.288 194.603 264.791 C190.385 267.516 186.133 270.108 181.75 272.562 C176.916 275.32 172.626 278.55 168.294 282.014 C162.889 286.252 157.087 289.757 151.179 293.245 C147.198 295.604 143.575 298.043 140 301 C137.97 302.433 135.927 303.848 133.875 305.25 C126.674 310.198 119.582 315.287 112.613 320.559 C105.19 326.139 97.608 331.17 89.638 335.938 C82.469 340.252 75.728 345.035 69 350 C67.084 351.397 65.168 352.793 63.25 354.188 C62.376 354.827 61.502 355.466 60.602 356.125 C57.97 358.022 55.302 359.856 52.625 361.688 C49.979 363.525 47.786 365.214 45.5 367.5 C41.751 371.249 37.388 374.046 33 377 C31.989 377.681 30.979 378.361 29.938 379.062 C28.968 379.702 27.999 380.341 27 381 C26.301 381.473 25.603 381.946 24.883 382.434 C24.117 382.951 23.351 383.467 22.562 384 C21.863 384.474 21.163 384.949 20.441 385.438 C19.636 385.953 18.83 386.469 18 387 C16.93 387.704 15.86 388.408 14.758 389.133 C10.69 391.428 6.915 391.73 2.312 391.875 C1.567 391.921 0.821 391.968 0.053 392.016 C-7.232 392.354 -7.232 392.354 -10 390 C-16.491 374.694 -11.71 359.133 -5.938 344.438 C-5.305 342.952 -4.66 341.473 -4 340 C-3.671 339.259 -3.343 338.518 -3.004 337.754 C-2.357 336.302 -1.709 334.851 -1.058 333.4 C2.171 326.077 4.848 318.708 7 311 C7.253 310.093 7.507 309.186 7.768 308.251 C8.525 305.504 9.266 302.753 10 300 C10.218 299.194 10.435 298.387 10.659 297.557 C13.571 286.549 14.518 276.373 14 265 C-23.834 255.267 -71.737 258.213 -106.112 277.857 C-114.731 283.018 -121.859 288.963 -129 296 C-130.762 297.614 -132.532 299.219 -134.312 300.812 C-135.119 301.54 -135.926 302.267 -136.758 303.016 C-138.705 304.739 -140.684 306.406 -142.688 308.062 C-145.771 310.688 -148.366 313.581 -150.98 316.668 C-154.283 320.481 -157.784 324.116 -161.254 327.777 C-178.495 347.227 -185.653 375.526 -193.31 399.818 C-193.979 401.935 -194.655 404.049 -195.334 406.163 C-203.003 430.04 -203.003 430.04 -205.617 441.96 C-206.841 447.518 -208.356 452.971 -209.938 458.438 C-210.194 459.325 -210.451 460.212 -210.715 461.126 C-211.228 462.896 -211.742 464.666 -212.256 466.435 C-215.069 476.137 -217.775 485.833 -220 495.688 C-221.474 502.149 -223.34 508.368 -225.508 514.637 C-227.477 520.33 -229.292 526.074 -231.125 531.812 C-231.462 532.862 -231.799 533.912 -232.146 534.994 C-233.68 539.793 -235.186 544.596 -236.609 549.43 C-237.617 552.811 -238.728 556.068 -240.125 559.312 C-241.768 563.132 -243.396 566.954 -244.973 570.801 C-248.922 580.344 -253.183 589.452 -258.339 598.403 C-261.225 603.462 -263.704 608.587 -266 613.938 C-268.811 620.477 -271.868 626.827 -275.188 633.125 C-275.592 633.894 -275.996 634.664 -276.412 635.457 C-278.735 639.815 -281.209 644.018 -283.911 648.153 C-285.065 650.11 -285.883 652.065 -286.688 654.188 C-288.739 659.041 -291.881 662.905 -295.148 666.978 C-298.034 670.616 -300.432 674.298 -302.688 678.375 C-305.081 682.648 -307.49 685.862 -311.11 689.139 C-313.123 691.121 -314.768 693.206 -316.48 695.453 C-321.05 701.227 -326.1 706.404 -331.32 711.581 C-332.901 713.151 -334.47 714.731 -336.039 716.312 C-337.044 717.316 -338.049 718.318 -339.055 719.32 C-339.957 720.22 -340.859 721.12 -341.789 722.047 C-344 724 -344 724 -346 724 C-346.33 724.99 -346.66 725.98 -347 727 C-349.004 728.762 -349.004 728.762 -351.562 730.688 C-354.905 733.282 -358.001 735.891 -360.938 738.938 C-364.822 742.94 -369.044 746.406 -373.391 749.895 C-375.576 751.658 -377.703 753.46 -379.812 755.312 C-382.719 757.821 -385.772 759.912 -389 762 C-390.507 763.087 -392.013 764.174 -393.52 765.262 C-398.759 768.933 -404.185 771.964 -409.875 774.875 C-410.372 775.131 -410.372 775.131 -412.884 776.428 C-422.436 781.309 -432.138 785.786 -442 790 C-443.097 790.48 -444.194 790.959 -445.324 791.453 C-463.922 799.135 -484.294 802.477 -504 806 C-505.222 806.221 -506.444 806.442 -507.703 806.669 C-511.488 807.35 -515.275 808.021 -519.062 808.688 C-520.202 808.89 -521.342 809.092 -522.516 809.301 C-538.376 812.038 -553.853 813.435 -569.938 813.438 C-570.382 813.439 -570.382 813.439 -572.629 813.445 C-588.288 813.445 -604.844 812.916 -619.562 806.964 C-623.522 805.398 -627.746 804.939 -631.941 804.32 C-637.068 803.461 -640.576 801.727 -645 799 C-646.981 798.28 -648.977 797.592 -651 797 C-651 796.01 -651 795.02 -651 794 C-650.596 793.909 -650.596 793.909 -648.551 793.449 C-647.482 793.198 -646.414 792.946 -645.312 792.688 C-644.785 792.566 -644.785 792.566 -642.113 791.949 C-639 791 -639 791 -636.63 789.519 C-633.934 787.962 -631.849 787.337 -628.809 786.746 C-627.795 786.537 -626.781 786.327 -625.737 786.111 C-624.648 785.889 -623.559 785.667 -622.438 785.438 C-607.798 782.265 -593.972 777.334 -580 772 C-578.878 771.575 -577.756 771.15 -576.6 770.713 C-570.377 768.343 -564.206 765.903 -558.125 763.188 C-557.748 763.019 -557.748 763.019 -555.84 762.169 C-546.215 757.815 -536.939 752.899 -528.009 747.248 C-526.111 746.069 -524.19 744.953 -522.246 743.852 C-512.924 738.464 -505.746 732.169 -498.32 724.406 C-495.231 721.183 -491.981 718.443 -488.379 715.805 C-485.096 713.314 -481.994 710.629 -478.875 707.938 C-478.301 707.442 -477.726 706.947 -477.135 706.437 C-475.999 705.457 -474.865 704.475 -473.732 703.492 C-472.538 702.464 -471.338 701.443 -470.134 700.427 C-467.057 697.83 -464.158 695.282 -461.562 692.188 C-460.989 691.515 -460.415 690.842 -459.824 690.148 C-459.222 689.439 -458.62 688.73 -458 688 C-450.88 679.86 -450.88 679.86 -447.375 676.438 C-441.465 670.372 -437.263 663.266 -433 656 C-430.238 651.412 -427.39 647.156 -424 643 C-423.084 641.594 -422.169 640.188 -421.254 638.781 C-419.671 636.532 -417.933 634.438 -416.188 632.312 C-409.62 624.143 -404.679 615.51 -400.121 606.119 C-397.539 600.882 -394.583 596.027 -391.367 591.16 C-388.672 587.075 -386.125 582.932 -383.688 578.688 C-383.073 577.619 -382.458 576.55 -381.824 575.449 C-380.069 572.13 -378.531 568.785 -377.033 565.345 C-376.012 563.026 -374.94 560.737 -373.852 558.449 C-369.733 549.7 -366.201 541.084 -363.59 531.773 C-360.911 522.355 -357.693 513.128 -354.5 503.875 C-354.225 503.077 -353.949 502.278 -353.665 501.456 C-353.53 501.063 -353.53 501.063 -352.845 499.079 C-352.576 498.298 -352.306 497.518 -352.029 496.714 C-351.491 495.155 -350.951 493.595 -350.411 492.036 C-349.027 488.031 -347.672 484.019 -346.363 479.989 C-346.097 479.175 -345.832 478.36 -345.558 477.521 C-345.055 475.975 -344.558 474.428 -344.066 472.879 C-342.772 468.904 -341.302 465.528 -339 462 C-333.748 451.042 -331.493 439.098 -328.779 427.333 C-327.513 421.916 -326.165 416.52 -324.812 411.125 C-324.694 410.648 -324.694 410.648 -324.092 408.231 C-321.612 398.328 -318.88 388.5 -316.062 378.688 C-315.535 376.848 -315.008 375.008 -314.48 373.168 C-314.227 372.284 -313.974 371.4 -313.712 370.49 C-313.093 368.324 -312.476 366.156 -311.863 363.988 C-310.919 360.656 -309.964 357.327 -309 354 C-308.684 352.904 -308.368 351.809 -308.043 350.68 C-304.325 338.149 -298.96 326.676 -293.048 315.069 C-292.017 313.034 -291 310.993 -289.988 308.949 C-287.031 302.98 -284.047 297.045 -280.846 291.203 C-270.095 271.532 -270.095 271.532 -271 264 C-274.929 261.027 -278.602 259.902 -283.465 259.754 C-284.348 259.721 -285.232 259.688 -286.143 259.654 C-287.971 259.594 -289.799 259.537 -291.627 259.482 C-296.38 259.301 -300.921 258.884 -305.597 257.994 C-311.808 256.935 -317.821 256.704 -324.111 256.709 C-325.264 256.703 -326.417 256.696 -327.605 256.689 C-331.414 256.671 -335.222 256.667 -339.031 256.664 C-341.056 256.659 -343.081 256.652 -345.106 256.646 C-353.818 256.618 -362.53 256.618 -371.243 256.624 C-373.498 256.625 -375.753 256.625 -378.008 256.624 C-417.975 256.616 -457.88 256.998 -497.812 258.812 C-498.751 258.854 -499.689 258.896 -500.656 258.939 C-527.861 260.147 -554.622 261.807 -581.115 268.537 C-584.566 269.412 -587.991 270.217 -591.5 270.812 C-598.056 272.093 -604.379 274.177 -610.719 276.254 C-612.392 276.801 -614.069 277.338 -615.748 277.869 C-623.151 280.253 -630.221 283.128 -637.312 286.312 C-638.408 286.801 -639.504 287.29 -640.634 287.793 C-642.796 288.759 -644.957 289.729 -647.117 290.702 C-649.492 291.771 -651.87 292.831 -654.25 293.887 C-666.192 299.294 -678.038 305.425 -689.016 312.605 C-693.231 315.273 -697.65 316.961 -702.312 318.688 C-715.786 323.883 -728.485 330.461 -740.535 338.426 C-743.109 340.07 -745.738 341.509 -748.438 342.938 C-756.837 347.437 -764.582 352.87 -772.152 358.637 C-777.935 362.903 -784.223 366.252 -790.582 369.57 C-793 371 -793 371 -794.332 372.427 C-796.415 374.391 -798.521 375.38 -801.113 376.594 C-802.114 377.067 -803.115 377.54 -804.146 378.027 C-805.191 378.513 -806.236 378.999 -807.312 379.5 C-809.371 380.468 -811.43 381.437 -813.488 382.406 C-814.458 382.86 -815.428 383.313 -816.427 383.781 C-818.383 384.708 -820.32 385.677 -822.246 386.664 C-825.661 388.321 -829.183 389.596 -832.75 390.875 C-839.071 393.192 -845.055 395.828 -851 399 C-852.352 399.692 -853.706 400.38 -855.062 401.062 C-855.708 401.387 -856.354 401.712 -857.02 402.047 C-859.072 403.035 -861.153 403.924 -863.25 404.812 C-867.038 406.461 -870.519 408.441 -874.062 410.562 C-877.997 412.905 -881.711 414.806 -886.035 416.273 C-889.194 417.441 -892.129 419.029 -895.125 420.559 C-899.043 422.523 -903.016 424.364 -906.992 426.207 C-910.338 427.757 -913.677 429.319 -917.004 430.91 C-920.553 432.607 -924.114 434.277 -927.684 435.928 C-929.263 436.659 -930.839 437.395 -932.414 438.135 C-943.72 443.414 -954.811 447.335 -967.006 450.061 C-972.119 451.208 -976.344 452.53 -981 455 C-983.078 455.769 -985.177 456.447 -987.287 457.125 C-990.532 458.172 -993.757 459.273 -996.984 460.375 C-998.917 461.029 -1000.849 461.682 -1002.782 462.334 C-1004.088 462.776 -1005.392 463.22 -1006.696 463.666 C-1014.486 466.329 -1022.228 468.665 -1030.302 470.324 C-1032.801 470.95 -1034.737 471.804 -1037 473 C-1039.233 473.316 -1041.432 473.437 -1043.684 473.559 C-1046 474 -1046 474 -1048.41 475.473 C-1052.148 477.677 -1055.811 477.854 -1060.062 478.375 C-1063.253 479.054 -1065.266 480.264 -1068 482 C-1069.96 482.514 -1071.923 483.025 -1073.898 483.477 C-1078.959 484.737 -1083.703 486.846 -1088.438 489 C-1092.868 490.999 -1097.371 492.532 -1102 494 C-1103.522 494.497 -1105.043 494.997 -1106.562 495.5 C-1107.31 495.747 -1108.058 495.995 -1108.828 496.25 C-1110.848 496.948 -1112.826 497.712 -1114.812 498.5 C-1119.027 500.104 -1123.338 501.125 -1127.715 502.188 C-1138.938 504.963 -1149.166 508.113 -1159.137 514.004 C-1162.089 515.582 -1165.196 516.724 -1168.316 517.926 C-1171.158 519.063 -1173.915 520.328 -1176.688 521.625 C-1181.617 523.886 -1186.468 525.373 -1191.73 526.676 C-1192.706 526.927 -1193.682 527.179 -1194.688 527.438 C-1195.599 527.663 -1196.51 527.889 -1197.449 528.121 C-1200 529 -1200 529 -1201.895 530.473 C-1204.739 532.536 -1207.617 533.079 -1211 534 C-1213.603 534.993 -1216.144 536.114 -1218.688 537.25 C-1219.382 537.558 -1220.077 537.866 -1220.793 538.183 C-1229.144 541.915 -1237.32 545.805 -1245.008 550.781 C-1249.568 553.571 -1254.464 555.776 -1259.273 558.098 C-1259.967 558.437 -1260.66 558.776 -1261.375 559.125 C-1261.981 559.416 -1262.587 559.708 -1263.211 560.008 C-1265 561 -1265 561 -1266.945 562.465 C-1269.718 564.537 -1272.715 566.03 -1275.781 567.621 C-1278.237 569.147 -1279.963 570.956 -1282 573 C-1283.637 574.107 -1285.307 575.167 -1287 576.188 C-1293.286 580.103 -1299.12 584.506 -1305 589 C-1307.082 590.565 -1309.165 592.127 -1311.25 593.688 C-1312.245 594.434 -1313.24 595.18 -1314.266 595.949 C-1315.388 596.791 -1315.388 596.791 -1321 601 C-1321.621 601.467 -1322.243 601.933 -1322.883 602.414 C-1324.521 603.641 -1326.162 604.864 -1327.805 606.086 C-1351.568 623.803 -1351.568 623.803 -1360.133 633.867 C-1363.543 637.762 -1367.112 641.579 -1371 645 C-1371.66 645 -1372.32 645 -1373 645 C-1373.134 645.32 -1373.134 645.32 -1373.812 646.938 C-1375 649 -1375 649 -1378 650 C-1378.717 651.307 -1379.376 652.646 -1380 654 C-1381.09 655.525 -1382.218 657.025 -1383.375 658.5 C-1383.96 659.253 -1384.545 660.006 -1385.148 660.781 C-1387 663 -1387 663 -1389.117 665.082 C-1391.181 667.184 -1392.342 669.433 -1393.734 672.008 C-1395.82 675.29 -1398.506 678.022 -1401.121 680.887 C-1403.981 684.103 -1406.157 687.63 -1408.406 691.285 C-1411.909 696.894 -1415.615 702.264 -1419.562 707.562 C-1426.033 716.264 -1431.195 725.235 -1435.938 734.98 C-1436.625 736.383 -1437.312 737.785 -1438 739.188 C-1438.171 739.543 -1438.171 739.543 -1439.039 741.342 C-1439.377 742.027 -1439.715 742.712 -1440.062 743.418 C-1440.363 744.034 -1440.663 744.651 -1440.973 745.286 C-1442 747 -1442 747 -1443.559 748.513 C-1445.845 750.872 -1446.139 753.878 -1447 757 C-1447.969 758.685 -1448.97 760.352 -1450 762 C-1451.619 765.498 -1452.958 768.85 -1454 772.562 C-1454.999 775.995 -1456.405 778.809 -1458 782 C-1458.477 783.411 -1458.933 784.828 -1459.375 786.25 C-1461.063 791.464 -1463.337 796.217 -1466 801 C-1466.619 802.155 -1467.237 803.31 -1467.875 804.5 C-1472.185 809.18 -1480.047 808.628 -1486 809 C-1486.839 809.055 -1487.677 809.11 -1488.542 809.167 C-1506.139 810.259 -1523.626 810.236 -1541.229 809.354 C-1547.954 809.034 -1554.643 808.988 -1561.375 809.062 C-1584.45 809.275 -1584.45 809.275 -1591 806 C-1591.186 801.906 -1590.838 799.593 -1589 796 C-1588.664 794.677 -1588.374 793.342 -1588.125 792 C-1586.549 784.515 -1584.714 777.105 -1580 771 C-1576.782 764.151 -1574.539 756.85 -1572.254 749.648 C-1571.158 746.253 -1570.063 743.124 -1568.438 739.938 C-1567.208 737.424 -1566.556 735.439 -1565.938 732.75 C-1565 729 -1565 729 -1563 727 C-1562.254 725.23 -1562.254 725.23 -1561.562 723.188 C-1560.422 719.817 -1558.879 717.022 -1557 714 C-1553.095 707.431 -1549.369 700.859 -1546 694 C-1545.527 693.22 -1545.054 692.44 -1544.566 691.637 C-1542.942 688.902 -1541.564 686.117 -1540.188 683.25 C-1537.865 678.548 -1535.289 674.251 -1532.301 669.949 C-1531 668 -1531 668 -1529.5 664.938 C-1527.8 661.608 -1525.682 658.885 -1523.406 655.934 C-1521.592 653.439 -1520.355 650.767 -1519 648 C-1517.593 645.794 -1516.128 643.634 -1514.652 641.473 C-1512.96 638.941 -1511.392 636.353 -1509.812 633.75 C-1506.652 628.737 -1503.017 624.376 -1499.134 619.925 C-1495.236 615.408 -1491.959 610.695 -1488.754 605.656 C-1485.625 600.917 -1482.038 596.978 -1478 593 C-1476.101 591.022 -1474.236 589.014 -1472.375 587 C-1471.898 586.492 -1471.421 585.984 -1470.93 585.461 C-1468.168 582.469 -1466.037 579.509 -1464 576 C-1453.263 560.4 -1453.263 560.4 -1445.938 554.57 C-1441.004 550.572 -1436.512 545.899 -1432.562 540.938 C-1428.849 536.68 -1424.464 533.438 -1420 530 C-1419.219 529.376 -1418.438 528.752 -1417.633 528.109 C-1412.936 524.371 -1408.146 521.081 -1403 518 C-1401.317 516.985 -1399.634 515.97 -1397.954 514.949 C-1396.257 513.917 -1394.556 512.892 -1392.855 511.867 C-1390.509 510.333 -1388.895 509.004 -1387 507 C-1382.761 503.434 -1378.233 500.58 -1373.523 497.684 C-1371 496 -1371 496 -1369.607 494.568 C-1367.791 492.796 -1365.916 491.562 -1363.762 490.223 C-1362.941 489.709 -1362.121 489.195 -1361.275 488.666 C-1360.848 488.401 -1360.848 488.401 -1358.688 487.062 C-1357.003 486.012 -1355.32 484.962 -1353.637 483.91 C-1353.235 483.66 -1353.235 483.66 -1351.204 482.393 C-1349.378 481.239 -1347.576 480.046 -1345.781 478.844 C-1341.871 476.252 -1337.79 473.99 -1333.707 471.684 C-1331.405 470.252 -1329.843 468.937 -1328 467 C-1326 466 -1324 465 -1322 464 C-1318.085 461.516 -1314.273 458.878 -1310.457 456.246 C-1305.5 452.95 -1300.324 450.003 -1295.188 447 C-1294.145 446.384 -1293.103 445.768 -1292.029 445.133 C-1286.781 442.062 -1281.572 439.222 -1275.973 436.846 C-1273.1 435.614 -1270.341 434.179 -1267.562 432.75 C-1261.987 429.922 -1256.337 427.292 -1250.625 424.75 C-1250.257 424.585 -1250.257 424.585 -1248.393 423.753 C-1242.148 420.997 -1235.837 418.526 -1229.312 416.5 C-1226.725 415.657 -1224.78 414.866 -1222.438 413.438 C-1219.642 411.789 -1217.119 411.238 -1213.98 410.531 C-1211.11 409.761 -1208.627 408.371 -1206 407 C-1204 406.333 -1202 405.667 -1200 405 C-1199.01 404.34 -1198.02 403.68 -1197 403 C-1195.493 402.497 -1193.97 402.043 -1192.438 401.625 C-1186.009 399.768 -1179.593 397.729 -1174 394 C-1171.949 393.473 -1171.949 393.473 -1169.688 393.062 C-1165.723 392.243 -1162.575 390.943 -1159 389 C-1154.702 386.983 -1150.506 385.553 -1145.938 384.25 C-1141.181 382.836 -1137.093 381.076 -1132.75 378.688 C-1118.365 371.223 -1101.716 368.284 -1085.988 364.848 C-1073.42 362.058 -1061.189 358.111 -1049 354 C-1041.607 351.507 -1034.202 349.126 -1026.715 346.93 C-1024 346 -1024 346 -1021 344 C-1018.218 343.162 -1015.414 342.479 -1012.594 341.781 C-1010 341 -1010 341 -1007 339 C-1005.554 338.634 -1004.093 338.326 -1002.625 338.062 C-998.846 337.288 -996.275 336.068 -993 334 C-990.681 333.286 -988.345 332.625 -986 332 C-980.701 330.415 -975.8 328.523 -970.895 325.969 C-967.997 324.487 -964.998 323.262 -962 322 C-956.677 319.745 -951.607 317.281 -946.586 314.418 C-942.311 312.074 -937.912 309.974 -933.527 307.844 C-930.961 306.502 -928.598 305.142 -926.172 303.586 C-921.715 300.751 -917.056 298.438 -912.312 296.125 C-906.435 293.23 -900.611 290.29 -894.875 287.125 C-890.473 284.719 -886.084 282.734 -881.395 280.961 C-877.979 279.59 -874.756 277.888 -871.484 276.207 C-869.105 275.051 -866.728 274.107 -864.25 273.188 C-858.126 270.803 -852.58 267.441 -846.931 264.121 C-844.231 262.554 -841.5 261.044 -838.77 259.531 C-833.011 256.335 -827.371 253.105 -821.992 249.289 C-820 248 -820 248 -817.184 246.637 C-813.577 244.782 -810.446 242.585 -807.188 240.188 C-805.946 239.287 -804.704 238.387 -803.461 237.488 C-802.865 237.057 -802.269 236.626 -801.655 236.182 C-798.883 234.202 -796.033 232.345 -793.18 230.484 C-790.69 228.789 -788.329 226.956 -785.938 225.125 C-779.1 220.114 -771.645 216.588 -764 213 C-762.871 212.464 -761.742 211.928 -760.578 211.375 C-752.037 207.375 -743.36 203.698 -734.68 200.016 C-726.266 196.369 -718.135 192.098 -709.953 187.966 C-705.956 185.949 -701.953 183.945 -697.939 181.961 C-696.673 181.334 -695.409 180.702 -694.146 180.066 C-683.753 174.844 -673.143 171.284 -662 168 C-659.311 167.2 -656.622 166.398 -653.934 165.594 C-652.24 165.089 -650.545 164.588 -648.849 164.092 C-645.124 162.992 -641.482 161.828 -637.867 160.406 C-634.227 159.009 -630.672 158.296 -626.812 157.688 C-620.527 156.627 -614.582 155.015 -608.5 153.125 C-597.7 149.823 -586.725 148.178 -575.576 146.561 C-574.898 146.463 -574.221 146.364 -573.522 146.263 C-571.664 145.996 -569.804 145.736 -567.945 145.477 C-565 145 -565 145 -562 144 C-559.733 143.698 -557.461 143.434 -555.188 143.188 C-549.602 142.569 -544.033 141.876 -538.469 141.086 C-512.328 137.385 -486.217 134.977 -459.812 134.414 C-459.355 134.404 -459.355 134.404 -457.041 134.352 C-439.572 133.972 -422.105 133.938 -404.633 133.973 C-404.297 133.973 -404.297 133.973 -402.598 133.976 C-390.046 134.001 -377.494 134.036 -364.942 134.088 C-355.943 134.125 -346.944 134.15 -337.945 134.16 C-337.592 134.161 -337.592 134.161 -335.803 134.163 C-312.767 134.185 -289.76 133.757 -266.732 133.139 C-232.124 132.211 -197.546 131.827 -162.926 131.875 C-161.805 131.876 -160.685 131.878 -159.531 131.879 C-143.617 131.9 -127.704 131.942 -111.791 131.99 C-95.513 132.038 -79.236 132.084 -62.958 132.107 C-56.485 132.117 -50.012 132.136 -43.538 132.164 C-39.556 132.179 -35.573 132.185 -31.59 132.19 C-29.757 132.193 -27.925 132.201 -26.093 132.211 C-9.327 132.309 -9.327 132.309 -1.283 130.431 C2.131 129.787 5.451 129.946 8.906 130.125 C11 130 11 130 14 128 C18.178 115.737 11.599 99.043 7.771 87.392 C6.694 84.048 5.711 80.678 4.732 77.305 C3.29 72.763 1.536 68.213 -1.192 64.282 C-4.784 59.045 -5.916 54.703 -6.562 48.438 C-7.35 42.075 -8.384 36.094 -10.188 29.938 C-11.943 23.753 -12.498 18.392 -12 12 C-11.956 11.152 -11.912 10.304 -11.867 9.43 C-11.433 3.565 -11.433 3.565 -9.676 1.273 C-6.746 -0.953 -3.471 -0.419 0 0 Z " fill="url(#g)" transform="translate(1678,448)"/><path d="M0 0 C9.064 6.68 10.926 19.981 12.922 30.324 C16.471 47.727 20.703 64.901 26.264 81.776 C27.093 84.348 27.871 86.933 28.652 89.52 C34.177 107.409 41.222 125.447 53.898 139.543 C57.127 143.364 59.519 147.648 62.078 151.934 C64.739 156.23 67.764 160.126 70.984 164.012 C71.476 164.625 71.967 165.239 72.473 165.871 C86.41 182.852 110.021 198.176 132.098 200.68 C151.086 202.188 169.452 201.437 187.984 197.012 C188.767 196.825 189.55 196.638 190.356 196.446 C193.775 195.618 197.177 194.756 200.574 193.844 C203.984 193.012 203.984 193.012 207.863 192.461 C210.984 192.012 210.984 192.012 211.984 191.012 C214.484 190.887 214.484 190.887 216.984 191.012 C218.767 192.794 218.157 195.355 218.172 197.762 C218.186 198.808 218.2 199.855 218.215 200.934 C217.981 204.06 217.203 206.153 215.984 209.012 C215.902 210.311 215.819 211.61 215.734 212.949 C214.793 222.888 208.943 232.256 204.484 241.023 C201.26 247.447 198.218 253.966 195.52 260.629 C192.492 268.097 189.222 273.921 183.984 280.012 C182.671 281.719 181.358 283.428 180.047 285.137 C176.424 289.658 172.48 293.376 167.984 297.012 C167.18 297.713 166.376 298.414 165.547 299.137 C148.281 311.77 124.715 312.929 103.984 312.012 C103.066 311.981 102.147 311.951 101.2 311.919 C62.836 310.506 31.495 292.863 3.957 266.773 C1.962 264.888 -0.082 263.107 -2.207 261.371 C-4.429 259.504 -6.201 257.806 -8.016 255.574 C-12.067 250.795 -16.538 246.461 -21.041 242.112 C-24.572 238.65 -27.382 235.232 -30.016 231.012 C-43.392 212.015 -43.392 212.015 -48.527 208.094 C-51.39 205.699 -52.829 203.388 -54.641 200.137 C-55.21 199.129 -55.78 198.121 -56.367 197.082 C-58.719 192.701 -60.968 188.338 -62.766 183.699 C-71.106 162.593 -71.106 162.593 -75.266 154.574 C-77.484 150.278 -78.972 146.154 -80.25 141.504 C-82.324 134.753 -85.693 128.521 -89.141 122.387 C-91.331 118.458 -92.981 114.709 -94.18 110.375 C-94.944 108.215 -95.864 106.469 -96.969 104.473 C-99.597 99.32 -100.306 93.998 -101.141 88.324 C-101.451 86.299 -101.766 84.274 -102.086 82.25 C-102.218 81.364 -102.349 80.477 -102.485 79.564 C-103.044 76.876 -103.958 74.54 -105.016 72.012 C-106.441 64.635 -107.308 55.45 -103.016 49.012 C-102.356 49.012 -101.696 49.012 -101.016 49.012 C-100.778 48.419 -100.541 47.826 -100.297 47.215 C-98.736 44.531 -97.116 43.433 -94.516 41.762 C-93.722 41.241 -92.928 40.72 -92.109 40.184 C-90.016 39.012 -90.016 39.012 -88.016 39.012 C-87.686 38.022 -87.356 37.032 -87.016 36.012 C-85.135 35.038 -83.248 34.074 -81.328 33.18 C-78.177 31.588 -75.362 29.611 -72.484 27.574 C-69.759 25.849 -66.953 24.457 -64.06 23.039 C-61.636 21.821 -59.289 20.481 -56.943 19.119 C-48.949 14.485 -40.761 10.243 -32.516 6.074 C-31.406 5.506 -30.296 4.939 -29.153 4.354 C-20.03 -0.219 -10.01 -4.908 0 0 Z " fill="url(#g)" transform="translate(1060.015625,769.98828125)"/><path d="M0 0 C2.75 2.375 2.75 2.375 5 5 C5.33 5.33 5.33 5.33 7 7 C8.062 9.655 9.044 12.307 10 15 C10.287 15.761 10.575 16.521 10.871 17.305 C13.998 25.635 16.61 34.123 19.252 42.616 C19.951 44.845 20.667 47.068 21.391 49.289 C23.822 56.803 25.837 64.248 27.324 72.012 C27.966 74.851 28.899 77.314 30 80 C30.346 81.472 30.659 82.951 30.938 84.438 C31.758 88.34 33.117 91.469 35 95 C35.286 95.892 35.572 96.784 35.867 97.703 C37.166 101.482 38.831 105.002 40.625 108.562 C40.973 109.259 41.322 109.956 41.68 110.674 C44.55 116.319 47.765 121.64 51.238 126.938 C52.945 129.905 54.078 132.731 55.22 135.938 C56.52 139.375 58.2 142.609 59.875 145.875 C60.585 147.273 61.294 148.672 62.004 150.07 C62.346 150.741 62.687 151.412 63.04 152.103 C64.697 155.377 66.295 158.681 67.895 161.984 C69 164 69 164 70.484 165.863 C73.042 169.469 74.166 173.663 75.621 177.809 C77.044 181.103 78.674 183.289 81 186 C82.279 187.765 83.55 189.536 84.812 191.312 C89.634 197.962 94.446 203.998 101 209 C101.743 209.745 102.485 210.49 103.25 211.258 C116.228 224.199 131.149 234.32 147.22 243.028 C148.408 243.676 149.589 244.336 150.765 245.007 C173.911 258.197 201.603 263.026 228 262 C228.571 261.985 228.571 261.985 231.461 261.906 C246.202 261.206 260.935 258.158 275.008 253.805 C278.654 252.824 282.149 252.48 285.914 252.371 C288.555 251.901 289.897 250.615 292 249 C294 249 296 249 298 249 C298.474 248.526 298.949 248.051 299.438 247.562 C301 246 301 246 304.5 245.562 C308 245 308 245 309.938 242.938 C310.288 242.298 310.639 241.659 311 241 C312.32 241.66 313.64 242.32 315 243 C314.534 249.525 311.245 252.837 306.766 257.152 C303.27 260.752 300.153 264.6 297 268.5 C293.176 273.232 289.335 277.722 285 282 C284.269 282.981 283.538 283.962 282.785 284.973 C279.465 289.019 275.02 291.07 270.438 293.438 C268.636 294.394 266.835 295.353 265.035 296.312 C264.168 296.771 263.3 297.23 262.407 297.703 C259.336 299.358 256.36 301.132 253.375 302.938 C249.153 305.431 244.946 307.386 240.359 309.109 C235.61 310.902 231.002 313.053 226.414 315.223 C220.743 317.88 215.087 320.081 209.117 321.973 C207.06 322.651 205.022 323.387 203.008 324.184 C159.389 341.3 107.638 338.145 65 320 C60.191 317.827 55.497 315.447 50.836 312.973 C49.054 312.029 47.262 311.106 45.469 310.184 C35.776 305.122 27.159 299.261 19 292 C18.376 291.479 17.752 290.958 17.109 290.422 C11.537 285.727 6.762 280.504 2 275 C1.144 274.02 0.288 273.041 -0.594 272.031 C-7.322 264.257 -13.513 256.135 -19.613 247.863 C-20.869 246.175 -22.154 244.508 -23.441 242.844 C-27.99 236.959 -32.004 230.938 -35.731 224.513 C-37.685 221.148 -39.734 217.911 -41.945 214.707 C-45.228 209.829 -47.726 204.704 -50.188 199.375 C-50.612 198.473 -51.037 197.57 -51.475 196.641 C-53.744 191.798 -55.924 186.929 -58 182 C-58.4 181.071 -58.799 180.141 -59.211 179.184 C-61.957 172.706 -64.408 166.167 -66.742 159.531 C-69.161 152.741 -71.709 145.995 -74.562 139.375 C-76.207 135.515 -77.626 131.599 -79.035 127.648 C-79.68 125.879 -80.356 124.121 -81.062 122.375 C-82 120 -82 120 -82.938 116.625 C-83.822 113.606 -84.891 110.848 -86.156 107.977 C-91.322 95.875 -95.414 82.764 -97.641 69.785 C-98 68 -98 68 -99 66 C-99.286 63.555 -99.512 61.14 -99.688 58.688 C-99.747 58.023 -99.807 57.358 -99.869 56.674 C-100.262 51.228 -99.666 47.948 -96.109 43.789 C-89.291 37.535 -82.397 33.73 -74 30 C-72.813 29.468 -71.626 28.935 -70.402 28.387 C-67.489 27.199 -64.806 26.377 -61.75 25.688 C-56.508 24.328 -52.228 22.104 -47.555 19.41 C-44.771 17.874 -42.016 16.812 -39.023 15.773 C-35.738 14.518 -32.658 12.868 -29.531 11.266 C-26.374 9.687 -23.157 8.279 -19.91 6.895 C-18 6 -18 6 -15 4 C-12.676 3.606 -10.342 3.265 -8 3 C-8 2.34 -8 1.68 -8 1 C-5.111 -0.444 -3.204 -0.377 0 0 Z " fill="url(#g)" transform="translate(873,869)"/></svg>